<svg width="201" height="46" viewBox="0 0 201 46" fill="none" xmlns="http://www.w3.org/2000/svg">
<path d="M86.376 36.288C84.336 36.288 82.536 36.024 80.976 35.496C79.416 34.968 78.024 34.2 76.8 33.192L77.736 31.356C78.6 32.028 79.44 32.58 80.256 33.012C81.096 33.444 82.008 33.768 82.992 33.984C83.976 34.176 85.092 34.272 86.34 34.272C88.572 34.272 90.252 33.84 91.38 32.976C92.508 32.088 93.072 30.924 93.072 29.484C93.072 28.236 92.676 27.288 91.884 26.64C91.116 25.968 89.76 25.44 87.816 25.056L84.144 24.3C81.816 23.82 80.076 23.052 78.924 21.996C77.796 20.94 77.232 19.5 77.232 17.676C77.232 16.188 77.616 14.892 78.384 13.788C79.152 12.684 80.22 11.832 81.588 11.232C82.956 10.632 84.54 10.332 86.34 10.332C88.14 10.332 89.772 10.608 91.236 11.16C92.724 11.688 93.996 12.48 95.052 13.536L94.152 15.336C93.024 14.28 91.836 13.524 90.588 13.068C89.34 12.588 87.924 12.348 86.34 12.348C84.252 12.348 82.596 12.828 81.372 13.788C80.148 14.724 79.536 15.996 79.536 17.604C79.536 18.9 79.92 19.908 80.688 20.628C81.48 21.348 82.752 21.888 84.504 22.248L88.212 23.004C90.684 23.508 92.496 24.252 93.648 25.236C94.8 26.196 95.376 27.576 95.376 29.376C95.376 30.744 95.004 31.956 94.26 33.012C93.54 34.044 92.508 34.848 91.164 35.424C89.82 36 88.224 36.288 86.376 36.288ZM100.066 43.776V21.996C100.066 21.348 100.042 20.688 99.9941 20.016C99.9461 19.344 99.8741 18.66 99.7781 17.964H101.938L102.298 22.464H101.866C102.274 20.976 103.066 19.8 104.242 18.936C105.418 18.072 106.846 17.64 108.526 17.64C110.158 17.64 111.562 18.024 112.738 18.792C113.938 19.536 114.874 20.604 115.546 21.996C116.218 23.364 116.554 25.02 116.554 26.964C116.554 28.908 116.218 30.576 115.546 31.968C114.898 33.36 113.974 34.428 112.774 35.172C111.574 35.916 110.158 36.288 108.526 36.288C106.87 36.288 105.442 35.868 104.242 35.028C103.066 34.164 102.274 32.988 101.866 31.5H102.262V43.776H100.066ZM108.238 34.416C110.086 34.416 111.562 33.78 112.666 32.508C113.77 31.236 114.322 29.388 114.322 26.964C114.322 24.54 113.77 22.692 112.666 21.42C111.562 20.148 110.086 19.512 108.238 19.512C106.414 19.512 104.95 20.148 103.846 21.42C102.766 22.692 102.226 24.54 102.226 26.964C102.226 29.388 102.766 31.236 103.846 32.508C104.95 33.78 106.414 34.416 108.238 34.416ZM128.176 36.288C126.544 36.288 125.128 35.916 123.928 35.172C122.728 34.428 121.804 33.36 121.156 31.968C120.508 30.576 120.184 28.908 120.184 26.964C120.184 25.02 120.508 23.364 121.156 21.996C121.828 20.604 122.764 19.536 123.964 18.792C125.164 18.024 126.568 17.64 128.176 17.64C129.832 17.64 131.26 18.072 132.46 18.936C133.684 19.8 134.488 20.976 134.872 22.464H134.44L134.8 17.964H136.924C136.852 18.66 136.78 19.344 136.708 20.016C136.66 20.688 136.636 21.348 136.636 21.996V36H134.44V31.5H134.836C134.452 32.988 133.648 34.164 132.424 35.028C131.224 35.868 129.808 36.288 128.176 36.288ZM128.464 34.416C130.312 34.416 131.776 33.78 132.856 32.508C133.936 31.236 134.476 29.388 134.476 26.964C134.476 24.54 133.936 22.692 132.856 21.42C131.776 20.148 130.312 19.512 128.464 19.512C126.616 19.512 125.14 20.148 124.036 21.42C122.956 22.692 122.416 24.54 122.416 26.964C122.416 29.388 122.956 31.236 124.036 32.508C125.14 33.78 126.616 34.416 128.464 34.416ZM142.569 36V22.176C142.569 21.48 142.545 20.784 142.497 20.088C142.473 19.368 142.413 18.66 142.317 17.964H144.477L144.765 22.104L144.333 22.14C144.573 21.132 145.005 20.304 145.629 19.656C146.253 18.984 146.973 18.48 147.789 18.144C148.605 17.808 149.445 17.64 150.309 17.64C150.621 17.64 150.909 17.664 151.173 17.712C151.461 17.736 151.725 17.784 151.965 17.856L151.893 19.836C151.605 19.74 151.317 19.68 151.029 19.656C150.741 19.632 150.429 19.62 150.093 19.62C149.013 19.62 148.065 19.884 147.249 20.412C146.457 20.94 145.845 21.612 145.413 22.428C144.981 23.244 144.765 24.072 144.765 24.912V36H142.569ZM155.156 36V9.504H157.352V26.136H157.424L166.316 17.964H169.16L158.936 27.36L159.044 26.028L170.24 36H167.252L157.424 27.324H157.352V36H155.156Z" fill="black"/>
<path d="M173.446 36V10.62H175.678V36H173.446ZM188.568 36V12.564H179.352V10.62H199.98V12.564H190.8V36H188.568Z" fill="#F6523C"/>
<path d="M9.41176 16.4167L27 5.68354L22.8947 1L1 15.0506L17.8772 34.2532L12.8596 38L1 23.9494" stroke="black" stroke-linejoin="round"/>
<path d="M48.5882 29.5833L31 40.3165L35.1053 45L57 30.9494L40.1228 11.7468L45.1404 8L57 22.0506" stroke="black" stroke-linejoin="round"/>
<path d="M31.1563 13.3388C30.7985 19.23 32.2574 21.8409 38.4688 24.9911C31.5711 25.3857 28.9508 27.0136 26.4354 32.3847C27.1155 26.6326 25.632 23.9659 19.4229 20.2701C25.3755 20.5893 28.0508 19.3076 31.1563 13.3388Z" fill="#F6523C"/>
</svg>
