<svg width="111" height="31" viewBox="0 0 111 31" fill="none" xmlns="http://www.w3.org/2000/svg">
<path d="M9.112 24.256C7.29867 24.256 5.69867 24.0213 4.312 23.552C2.92533 23.0827 1.688 22.4 0.6 21.504L1.432 19.872C2.2 20.4693 2.94667 20.96 3.672 21.344C4.41867 21.728 5.22933 22.016 6.104 22.208C6.97867 22.3787 7.97067 22.464 9.08 22.464C11.064 22.464 12.5573 22.08 13.56 21.312C14.5627 20.5227 15.064 19.488 15.064 18.208C15.064 17.0987 14.712 16.256 14.008 15.68C13.3253 15.0827 12.12 14.6133 10.392 14.272L7.128 13.6C5.05867 13.1733 3.512 12.4907 2.488 11.552C1.48533 10.6133 0.984 9.33333 0.984 7.712C0.984 6.38933 1.32533 5.23733 2.008 4.256C2.69067 3.27467 3.64 2.51733 4.856 1.984C6.072 1.45067 7.48 1.184 9.08 1.184C10.68 1.184 12.1307 1.42933 13.432 1.92C14.7547 2.38933 15.8853 3.09333 16.824 4.032L16.024 5.632C15.0213 4.69333 13.9653 4.02133 12.856 3.616C11.7467 3.18933 10.488 2.976 9.08 2.976C7.224 2.976 5.752 3.40267 4.664 4.256C3.576 5.088 3.032 6.21867 3.032 7.648C3.032 8.8 3.37333 9.696 4.056 10.336C4.76 10.976 5.89067 11.456 7.448 11.776L10.744 12.448C12.9413 12.896 14.552 13.5573 15.576 14.432C16.6 15.2853 17.112 16.512 17.112 18.112C17.112 19.328 16.7813 20.4053 16.12 21.344C15.48 22.2613 14.5627 22.976 13.368 23.488C12.1733 24 10.7547 24.256 9.112 24.256ZM21.281 30.912V11.552C21.281 10.976 21.2597 10.3893 21.217 9.792C21.1743 9.19467 21.1103 8.58667 21.025 7.968H22.945L23.265 11.968H22.881C23.2437 10.6453 23.9477 9.6 24.993 8.832C26.0383 8.064 27.3077 7.68 28.801 7.68C30.2517 7.68 31.4997 8.02133 32.545 8.704C33.6117 9.36533 34.4437 10.3147 35.041 11.552C35.6383 12.768 35.937 14.24 35.937 15.968C35.937 17.696 35.6383 19.1787 35.041 20.416C34.465 21.6533 33.6437 22.6027 32.577 23.264C31.5103 23.9253 30.2517 24.256 28.801 24.256C27.329 24.256 26.0597 23.8827 24.993 23.136C23.9477 22.368 23.2437 21.3227 22.881 20H23.233V30.912H21.281ZM28.545 22.592C30.1877 22.592 31.4997 22.0267 32.481 20.896C33.4623 19.7653 33.953 18.1227 33.953 15.968C33.953 13.8133 33.4623 12.1707 32.481 11.04C31.4997 9.90933 30.1877 9.344 28.545 9.344C26.9237 9.344 25.6223 9.90933 24.641 11.04C23.681 12.1707 23.201 13.8133 23.201 15.968C23.201 18.1227 23.681 19.7653 24.641 20.896C25.6223 22.0267 26.9237 22.592 28.545 22.592ZM46.2673 24.256C44.8166 24.256 43.5579 23.9253 42.4913 23.264C41.4246 22.6027 40.6033 21.6533 40.0273 20.416C39.4513 19.1787 39.1633 17.696 39.1633 15.968C39.1633 14.24 39.4513 12.768 40.0273 11.552C40.6246 10.3147 41.4566 9.36533 42.5233 8.704C43.5899 8.02133 44.8379 7.68 46.2673 7.68C47.7393 7.68 49.0086 8.064 50.0753 8.832C51.1633 9.6 51.8779 10.6453 52.2193 11.968H51.8353L52.1553 7.968H54.0433C53.9793 8.58667 53.9153 9.19467 53.8513 9.792C53.8086 10.3893 53.7873 10.976 53.7873 11.552V24H51.8353V20H52.1873C51.8459 21.3227 51.1313 22.368 50.0433 23.136C48.9766 23.8827 47.7179 24.256 46.2673 24.256ZM46.5233 22.592C48.1659 22.592 49.4673 22.0267 50.4273 20.896C51.3873 19.7653 51.8673 18.1227 51.8673 15.968C51.8673 13.8133 51.3873 12.1707 50.4273 11.04C49.4673 9.90933 48.1659 9.344 46.5233 9.344C44.8806 9.344 43.5686 9.90933 42.5873 11.04C41.6273 12.1707 41.1473 13.8133 41.1473 15.968C41.1473 18.1227 41.6273 19.7653 42.5873 20.896C43.5686 22.0267 44.8806 22.592 46.5233 22.592ZM59.0615 24V11.712C59.0615 11.0933 59.0402 10.4747 58.9975 9.856C58.9762 9.216 58.9228 8.58667 58.8375 7.968H60.7575L61.0135 11.648L60.6295 11.68C60.8428 10.784 61.2268 10.048 61.7815 9.472C62.3362 8.87467 62.9762 8.42667 63.7015 8.128C64.4268 7.82933 65.1735 7.68 65.9415 7.68C66.2188 7.68 66.4748 7.70133 66.7095 7.744C66.9655 7.76533 67.2002 7.808 67.4135 7.872L67.3495 9.632C67.0935 9.54667 66.8375 9.49333 66.5815 9.472C66.3255 9.45067 66.0482 9.44 65.7495 9.44C64.7895 9.44 63.9468 9.67467 63.2215 10.144C62.5175 10.6133 61.9735 11.2107 61.5895 11.936C61.2055 12.6613 61.0135 13.3973 61.0135 14.144V24H59.0615ZM70.2498 24V0.447998H72.2018V15.232H72.2658L80.1698 7.968H82.6978L73.6098 16.32L73.7058 15.136L83.6578 24H81.0018L72.2658 16.288H72.2018V24H70.2498Z" fill="white"/>
<path d="M86.5073 24V1.44H88.4913V24H86.5073ZM99.9495 24V3.168H91.7575V1.44H110.094V3.168H101.934V24H99.9495Z" fill="#F6523C"/>
</svg>
